<svg xmlns="http://www.w3.org/2000/svg" width="800" height="500" viewBox="0 0 800 500">
  <defs>
    <linearGradient id="sky7" x1="0%" y1="0%" x2="0%" y2="100%">
      <stop offset="0%" style="stop-color:#1a365d"/>
      <stop offset="100%" style="stop-color:#2a4a7f"/>
    </linearGradient>
  </defs>
  <rect width="800" height="500" fill="url(#sky7)"/>
  <rect x="0" y="340" width="800" height="160" fill="#2d3748"/>
  <!-- Large integrated steel plant -->
  <rect x="50" y="150" width="350" height="190" fill="#4a5568"/>
  <rect x="50" y="150" width="350" height="25" fill="#2d3748"/>
  <rect x="450" y="200" width="300" height="140" fill="#718096"/>
  <rect x="450" y="200" width="300" height="20" fill="#4a5568"/>
  <!-- Blast furnace -->
  <rect x="150" y="80" width="80" height="220" fill="#a0aec0"/>
  <rect x="140" y="70" width="100" height="20" fill="#718096"/>
  <circle cx="190" cy="100" r="15" fill="#ed8936" opacity="0.8"/>
  <!-- Chimneys -->
  <rect x="350" y="60" width="30" height="240" fill="#718096"/>
  <rect x="550" y="100" width="25" height="200" fill="#718096"/>
  <!-- Smoke -->
  <circle cx="365" cy="45" r="18" fill="#a0aec0" opacity="0.4"/>
  <circle cx="380" cy="30" r="12" fill="#a0aec0" opacity="0.3"/>
  <circle cx="562" cy="85" r="15" fill="#a0aec0" opacity="0.4"/>
  <!-- Windows -->
  <rect x="80" y="200" width="40" height="30" fill="#4299e1" opacity="0.5"/>
  <rect x="140" y="200" width="40" height="30" fill="#4299e1" opacity="0.5"/>
  <rect x="200" y="200" width="40" height="30" fill="#4299e1" opacity="0.5"/>
  <rect x="260" y="200" width="40" height="30" fill="#4299e1" opacity="0.5"/>
  <rect x="480" y="240" width="50" height="40" fill="#4299e1" opacity="0.5"/>
  <rect x="560" y="240" width="50" height="40" fill="#4299e1" opacity="0.5"/>
  <rect x="640" y="240" width="50" height="40" fill="#4299e1" opacity="0.5"/>
  <text x="400" y="440" text-anchor="middle" fill="white" font-size="28" font-family="Arial, sans-serif" font-weight="bold">沧州中铁</text>
  <text x="400" y="475" text-anchor="middle" fill="#c9a96e" font-size="18" font-family="Arial, sans-serif">Cangzhou CITIC</text>
</svg>